HIERARCHY
ROOT Hips
{
 OFFSET 0.000000 0.000000 0.000000
 CHANNELS 6 Xposition Yposition Zposition Yrotation Xrotation Zrotation
 JOINT Chest
 {
  OFFSET 0.000000 9.585900 0.002600
  CHANNELS 3 Yrotation Xrotation Zrotation
  JOINT Chest2
  {
   OFFSET 0.000000 9.601200 -0.005300
   CHANNELS 3 Yrotation Xrotation Zrotation
   JOINT Chest3
   {
    OFFSET 0.000000 9.561800 0.000000
    CHANNELS 3 Yrotation Xrotation Zrotation
    JOINT Chest4
    {
     OFFSET 0.000000 9.552100 0.000000
     CHANNELS 3 Yrotation Xrotation Zrotation
     JOINT Neck
     {
      OFFSET 0.000000 14.453000 0.000000
      CHANNELS 3 Yrotation Xrotation Zrotation
      JOINT Head
      {
       OFFSET 0.000000 8.936500 -0.011300
       CHANNELS 3 Yrotation Xrotation Zrotation
       End Site
       {
        OFFSET 0.000000 17.073600 -0.006000
       }
      }
     }
     JOINT RightCollar
     {
      OFFSET -2.921100 9.558500 0.000000
      CHANNELS 3 Yrotation Xrotation Zrotation
      JOINT RightShoulder
      {
       OFFSET -13.519700 0.000000 0.000000
       CHANNELS 3 Yrotation Xrotation Zrotation
       JOINT RightElbow
       {
        OFFSET 0.000000 -29.696600 0.000000
        CHANNELS 3 Yrotation Xrotation Zrotation
        JOINT RightWrist
        {
         OFFSET 0.000000 -24.004700 0.000000
         CHANNELS 3 Yrotation Xrotation Zrotation
         End Site
         {
          OFFSET 0.000000 -17.728500 0.000000
         }
        }
       }
      }
     }
     JOINT LeftCollar
     {
      OFFSET 2.921100 9.558500 0.000000
      CHANNELS 3 Yrotation Xrotation Zrotation
      JOINT LeftShoulder
      {
       OFFSET 13.519700 0.000000 0.000000
       CHANNELS 3 Yrotation Xrotation Zrotation
       JOINT LeftElbow
       {
        OFFSET 0.000000 -29.696600 0.000000
        CHANNELS 3 Yrotation Xrotation Zrotation
        JOINT LeftWrist
        {
         OFFSET 0.000000 -24.004700 0.000000
         CHANNELS 3 Yrotation Xrotation Zrotation
         End Site
         {
          OFFSET 0.000000 -17.728500 0.000000
         }
        }
       }
      }
     }
    }
   }
  }
 }
 JOINT RightHip
 {
  OFFSET -7.771700 -0.012900 -0.001300
  CHANNELS 3 Yrotation Xrotation Zrotation
  JOINT RightKnee
  {
   OFFSET 0.000000 -40.869800 0.001200
   CHANNELS 3 Yrotation Xrotation Zrotation
   JOINT RightAnkle
   {
    OFFSET 0.000000 -39.717900 0.002100
    CHANNELS 3 Yrotation Xrotation Zrotation
    JOINT RightToe
    {
     OFFSET 0.000000 -4.965400 11.033500
     CHANNELS 3 Yrotation Xrotation Zrotation
     End Site
     {
      OFFSET 0.000000 -1.423100 5.872300
     }
    }
   }
  }
 }
 JOINT LeftHip
 {
  OFFSET 7.771700 -0.012900 -0.001300
  CHANNELS 3 Yrotation Xrotation Zrotation
  JOINT LeftKnee
  {
   OFFSET 0.000000 -40.869800 0.001200
   CHANNELS 3 Yrotation Xrotation Zrotation
   JOINT LeftAnkle
   {
    OFFSET 0.000000 -39.717900 0.002100
    CHANNELS 3 Yrotation Xrotation Zrotation
    JOINT LeftToe
    {
     OFFSET 0.000000 -4.965400 11.033500
     CHANNELS 3 Yrotation Xrotation Zrotation
     End Site
     {
      OFFSET 0.000000 -1.423100 5.872300
     }
    }
   }
  }
 }
}
MOTION
Frames: 7
Frame Time: 0.008333
0.000000 85.388000 0.000000 0.000000 -5.767877 0.000000 0.000000 11.653817 0.000000 0.000000 -5.885947 0.000000 0.000000 -0.000000 0.000000 0.000000 -0.000000 0.000000 0.000000 12.528835 0.000000 0.000000 0.711642 0.000000 0.000000 -0.000000 0.000000 0.000000 0.000000 -90.000000 0.000000 -2.309062 0.000000 0.000000 2.309062 0.000000 0.000000 -0.000000 0.000000 0.000000 -0.000000 90.000000 0.000000 -2.309062 0.000000 0.000000 2.309062 0.000000 0.000000 8.520406 0.000000 0.000000 1.905762 0.000000 -0.000000 -4.658285 0.000000 0.000000 -0.000000 0.000000 0.000000 8.520406 0.000000 0.000000 1.905762 0.000000 -0.000000 -4.658285 0.000000 0.000000 -0.000000 0.000000
-74.059550 49.581713 -6.141238 158.021848 -10.405424 2.126590 1.139650 6.242386 3.045300 -0.039269 0.311611 0.126005 0.139877 0.426289 0.225329 1.153695 5.903923 2.958337 2.167593 21.690325 0.830717 3.691891 4.488066 0.901169 2.820788 10.057379 2.123107 -16.839730 -14.314802 -7.935765 -70.761068 -77.068408 91.757374 -1.727464 -2.025267 -17.728513 -2.266167 4.006358 0.880880 30.219377 -10.056793 9.754472 47.260886 -56.723380 -72.806694 -1.656782 6.041294 -11.203991 0.039761 -70.560056 2.887557 -106.733705 76.535111 -108.838980 -2.562763 -13.619590 1.904389 0.011758 -0.051952 0.054376 2.890929 -73.112095 21.717723 125.395703 78.885675 121.955035 -15.667071 -25.162701 0.451679 0.148755 0.080474 -0.064521
-74.070766 49.546863 -6.129786 158.107542 -10.414421 2.163904 1.137072 6.200883 2.988771 0.021668 0.270446 0.129221 0.096374 0.440750 0.218438 1.120295 5.868903 2.939148 2.491421 21.708327 0.834809 4.276677 4.525678 0.819281 3.165382 10.292223 2.132533 -14.960728 -14.691514 -7.675824 -57.623404 -73.335252 76.819284 -2.049106 -1.441223 -19.766275 -2.424305 4.875631 0.414827 29.641876 -10.871784 8.037976 45.850656 -56.819515 -70.193852 -1.841628 6.013572 -10.140890 0.420915 -70.574109 2.389097 -107.171664 76.686478 -109.205606 -2.623949 -13.675702 1.884000 -0.035158 -0.018830 0.085507 2.889345 -73.128372 21.561084 125.302715 78.827827 121.863341 -15.638789 -25.158112 0.460144 0.123522 0.088976 -0.095441
-74.077346 49.507441 -6.112504 158.201625 -10.429759 2.170224 1.145067 6.167258 2.935110 0.042386 0.253878 0.123150 0.074765 0.446055 0.216520 1.118932 5.828974 2.896555 2.816215 21.708964 0.882589 4.851217 4.530702 0.815808 3.485264 10.640936 2.089869 -12.780408 -15.438374 -7.680339 -51.046702 -66.974117 68.440642 -2.715337 -0.578944 -21.441013 -2.615118 5.540258 -0.052143 29.100901 -11.739080 6.623501 44.526643 -57.194154 -67.988629 -2.075258 5.989505 -9.245964 0.760356 -70.575594 1.929195 -107.622986 76.847353 -109.567248 -2.689177 -13.741099 1.866096 -0.082607 0.022789 0.111826 2.803463 -73.145261 21.478237 125.130788 78.789226 121.731364 -15.606997 -25.156691 0.426667 0.121022 0.121078 -0.090414
-74.081055 49.465022 -6.088017 158.312748 -10.440422 2.152527 1.158595 6.133861 2.867930 0.042734 0.250480 0.118917 0.075423 0.440232 0.209129 1.132420 5.803053 2.823685 3.137662 21.689128 0.981854 5.405615 4.496291 0.905655 3.765694 11.075577 2.020512 -10.591891 -16.582837 -7.969429 -48.484540 -58.946591 64.358438 -4.089231 0.023528 -22.761727 -2.938008 5.961187 -0.548039 28.596042 -12.600784 5.598290 43.410441 -57.741970 -66.327247 -2.281985 5.978511 -8.654552 1.118596 -70.579311 1.435414 -108.118204 77.023468 -109.936708 -2.767337 -13.803826 1.859467 -0.040714 0.029887 0.092988 2.662078 -73.173779 21.432008 124.835269 78.770182 121.511232 -15.575822 -25.146278 0.351204 0.137717 0.168129 -0.042495
-74.087446 49.422921 -6.065909 158.394039 -10.485191 2.172731 1.214077 6.149225 2.730385 0.043860 0.248201 0.113464 0.077530 0.436447 0.199614 1.162665 5.796050 2.719118 3.450733 21.638482 1.132012 5.930840 4.402796 1.088669 4.003576 11.481597 1.970640 -8.837225 -18.067764 -8.586853 -47.377383 -50.482777 62.569485 -6.104582 -0.236265 -23.950002 -3.414234 6.169542 -1.065528 28.041990 -13.441904 4.995953 42.752459 -58.316249 -65.404011 -2.406173 5.963623 -8.407089 1.668305 -70.542738 0.772441 -108.647232 77.211869 -110.313429 -2.860310 -13.874448 1.850273 -0.019166 0.058703 0.088853 2.683504 -73.167372 21.260769 124.711238 78.712901 121.414755 -15.514596 -25.160340 0.334765 0.093245 0.196132 -0.042616
-74.089124 49.381104 -6.037369 158.487166 -10.528622 2.163834 1.276205 6.182140 2.585902 0.045829 0.247456 0.107094 0.081000 0.435202 0.188464 1.208702 5.810740 2.586492 3.747656 21.543143 1.320915 6.416343 4.224380 1.344219 4.206253 11.754843 1.970793 -7.808425 -19.777066 -9.533947 -46.609087 -42.606092 62.471839 -8.048208 -1.687518 -25.148240 -4.003837 6.190687 -1.580063 27.320028 -14.252250 4.814897 42.770668 -58.795827 -65.365855 -2.436304 5.926239 -8.437545 2.178257 -70.503288 0.146868 -109.192091 77.403838 -110.685382 -2.978241 -13.933204 1.859789 0.011236 0.084212 0.073513 2.620972 -73.168324 21.163320 124.508482 78.678267 121.264921 -15.430708 -25.168663 0.302410 0.034969 0.234368 -0.055229
